<svg width="70" height="60" viewBox="0 0 70 60" fill="none" xmlns="http://www.w3.org/2000/svg">
<path d="M33.4518 38.6044C27.9122 35.7127 25.5138 32.8145 23.3241 26.0173C22.9786 24.9385 21.2646 24.9385 20.9127 26.0173C18.7294 32.8145 16.3246 35.7127 10.7849 38.6044C9.9507 39.0398 9.9507 40.112 10.7849 40.5539C16.3246 43.4457 18.7229 46.3439 20.9127 53.1411C21.2581 54.2198 22.9721 54.2198 23.3241 53.1411C25.5073 46.3439 27.9122 43.4457 33.4518 40.5539C34.286 40.1185 34.286 39.0463 33.4518 38.6044ZM10.6024 50.6588C8.55601 51.783 7.66967 52.9007 6.86153 55.539C6.73119 55.9614 6.09901 55.9614 5.96867 55.539C5.16053 52.9072 4.27419 51.783 2.22778 50.6588C1.92147 50.4898 1.92147 50.0739 2.22778 49.905C4.27419 48.7808 5.16053 47.663 5.96867 45.0247C6.09901 44.6024 6.73119 44.6024 6.86153 45.0247C7.66967 47.6565 8.55601 48.7808 10.6024 49.905C10.9087 50.0739 10.9087 50.4898 10.6024 50.6588ZM34.8465 3.5462L67.8042 54.1548C68.3255 54.9541 67.752 56.0068 66.794 56.0068H52.4756C52.0716 56.0068 51.687 55.7989 51.4655 55.461L25.6116 15.75C25.3509 15.3536 25.3509 14.8337 25.6116 14.4373L32.8327 3.5397C33.3085 2.81839 34.3708 2.82489 34.84 3.5462H34.8465Z" fill="url(#paint0_linear_381_4934)"/>
<defs>
<linearGradient id="paint0_linear_381_4934" x1="1.99968" y1="29.5003" x2="67.9997" y2="29.5003" gradientUnits="userSpaceOnUse">
<stop stop-color="#27B88E"/>
<stop offset="0.18" stop-color="#26AF90"/>
<stop offset="0.46" stop-color="#249797"/>
<stop offset="0.81" stop-color="#2170A2"/>
<stop offset="1" stop-color="#205AA9"/>
</linearGradient>
</defs>
</svg>
